/* XPM */
static char *torch_0[] = {
"16 16 4 1",
"  c None",
". c #8B4513",
"* c #FFA500",
"x c #FFFF00",
"       **       ",
"      *xx*      ",
"      *xx*      ",
"       **       ",
"       **       ",
"      *xx*      ",
"       **       ",
"        *       ",
"        *       ",
"        *       ",
"       ***      ",
"       ***      ",
"       ***      ",
"       ...      ",
"       ...      ",
"       ...      "
};
