/* XPM */
static char *torch_2[] = {
"16 16 4 1",
"  c None",
". c #8B4513",
"* c #FFA500",
"x c #FFFF00",
"     ***        ",
"    *xxx*       ",
"   *xxxx*       ",
"   *xxx*        ",
"    ***         ",
"   *xxx*        ",
"    ***         ",
"     **         ",
"     **         ",
"     **         ",
"    ****        ",
"    ****        ",
"    ****        ",
"    ...         ",
"    ...         ",
"    ...         "
};
